<svg width="677" height="60" viewBox="0 0 677 60" fill="none" xmlns="http://www.w3.org/2000/svg">
<path d="M21.899 49.566V40.666H33.736V48.142C33.736 55.974 30.0573 59.89 22.7 59.89H11.486C4.12867 59.89 0.45 55.974 0.45 48.142V12.275C0.45 4.443 4.12867 0.527 11.486 0.527H22.7C30.0573 0.527 33.736 4.443 33.736 12.275V17.704H21.899V10.762C21.899 10.2873 21.721 9.872 21.365 9.516C21.0683 9.16 20.6827 8.982 20.208 8.982H14.601C14.1263 8.982 13.711 9.16 13.355 9.516C13.0583 9.872 12.91 10.2873 12.91 10.762V49.566C12.91 50.0407 13.0583 50.456 13.355 50.812C13.711 51.168 14.1263 51.346 14.601 51.346H20.208C20.6827 51.346 21.0683 51.168 21.365 50.812C21.721 50.456 21.899 50.0407 21.899 49.566ZM53.6727 35.415V59H41.2127V1.417H63.3737C70.731 1.417 74.4097 5.333 74.4097 13.165V19.84C74.4097 24.5867 72.7187 27.6127 69.3367 28.918C72.3034 29.986 73.7867 32.4187 73.7867 36.216V59H61.3267V37.195C61.3267 36.0083 60.763 35.415 59.6357 35.415H53.6727ZM53.6727 9.872V26.693H60.2587C60.7334 26.693 61.119 26.515 61.4157 26.159C61.7717 25.803 61.9497 25.3877 61.9497 24.913V11.652C61.9497 11.1773 61.7717 10.762 61.4157 10.406C61.119 10.05 60.7334 9.872 60.2587 9.872H53.6727ZM94.87 48.676H108.665V59H82.41V1.417H108.665V11.563H94.87V25.091H107.775V34.881H94.87V48.676ZM138.745 0.527C146.102 0.527 149.781 4.443 149.781 12.275V59H137.321V39.687H128.332V59H115.872V12.275C115.872 4.443 119.551 0.527 126.908 0.527H138.745ZM128.332 30.075H137.321V10.762C137.321 10.2873 137.143 9.872 136.787 9.516C136.49 9.16 136.105 8.982 135.63 8.982H130.023C129.548 8.982 129.133 9.16 128.777 9.516C128.48 9.872 128.332 10.2873 128.332 10.762V30.075ZM155.775 12.008V1.417H186.925V12.008H177.58V59H165.12V12.008H155.775ZM205.077 1.417V59H192.617V1.417H205.077ZM248.255 12.275V48.142C248.255 55.974 244.576 59.89 237.219 59.89H225.382C218.024 59.89 214.346 55.974 214.346 48.142V12.275C214.346 4.443 218.024 0.527 225.382 0.527H237.219C244.576 0.527 248.255 4.443 248.255 12.275ZM235.795 49.566V10.762C235.795 10.2873 235.617 9.872 235.261 9.516C234.964 9.16 234.578 8.982 234.104 8.982H228.497C228.022 8.982 227.607 9.16 227.251 9.516C226.954 9.872 226.806 10.2873 226.806 10.762V49.566C226.806 50.0407 226.954 50.456 227.251 50.812C227.607 51.168 228.022 51.346 228.497 51.346H234.104C234.578 51.346 234.964 51.168 235.261 50.812C235.617 50.456 235.795 50.0407 235.795 49.566ZM290.474 59H278.014V11.207C278.014 10.7323 277.836 10.317 277.48 9.961C277.183 9.605 276.798 9.427 276.323 9.427H271.517C271.042 9.427 270.627 9.605 270.271 9.961C269.974 10.317 269.826 10.7323 269.826 11.207V59H257.366V12.275C257.366 4.443 261.045 0.527 268.402 0.527H279.438C286.795 0.527 290.474 4.443 290.474 12.275V59ZM339.69 0.527C347.048 0.527 350.726 4.443 350.726 12.275V59H338.266V39.687H329.277V59H316.817V12.275C316.817 4.443 320.496 0.527 327.853 0.527H339.69ZM329.277 30.075H338.266V10.762C338.266 10.2873 338.088 9.872 337.732 9.516C337.436 9.16 337.05 8.982 336.575 8.982H330.968C330.494 8.982 330.078 9.16 329.722 9.516C329.426 9.872 329.277 10.2873 329.277 10.762V30.075ZM393.032 59H380.572V11.207C380.572 10.7323 380.394 10.317 380.038 9.961C379.742 9.605 379.356 9.427 378.881 9.427H374.075C373.601 9.427 373.185 9.605 372.829 9.961C372.533 10.317 372.384 10.7323 372.384 11.207V59H359.924V12.275C359.924 4.443 363.603 0.527 370.96 0.527H381.996C389.354 0.527 393.032 4.443 393.032 12.275V59ZM424.258 1.417C431.615 1.417 435.294 5.333 435.294 13.165V47.252C435.294 55.084 431.615 59 424.258 59H401.385V1.417H424.258ZM422.834 48.676V11.652C422.834 11.1773 422.656 10.762 422.3 10.406C422.003 10.05 421.617 9.872 421.143 9.872H413.845V50.456H421.143C421.617 50.456 422.003 50.278 422.3 49.922C422.656 49.566 422.834 49.1507 422.834 48.676ZM475.032 35.415V59H462.572V1.417H484.733C492.09 1.417 495.769 5.333 495.769 13.165V19.84C495.769 24.5867 494.078 27.6127 490.696 28.918C493.663 29.986 495.146 32.4187 495.146 36.216V59H482.686V37.195C482.686 36.0083 482.122 35.415 480.995 35.415H475.032ZM475.032 9.872V26.693H481.618C482.093 26.693 482.478 26.515 482.775 26.159C483.131 25.803 483.309 25.3877 483.309 24.913V11.652C483.309 11.1773 483.131 10.762 482.775 10.406C482.478 10.05 482.093 9.872 481.618 9.872H475.032ZM526.642 0.527C534 0.527 537.678 4.443 537.678 12.275V59H525.218V39.687H516.229V59H503.769V12.275C503.769 4.443 507.448 0.527 514.805 0.527H526.642ZM516.229 30.075H525.218V10.762C525.218 10.2873 525.04 9.872 524.684 9.516C524.388 9.16 524.002 8.982 523.527 8.982H517.92C517.446 8.982 517.03 9.16 516.674 9.516C516.378 9.872 516.229 10.2873 516.229 10.762V30.075ZM559.426 35.415V59H546.966V1.417H569.127C576.484 1.417 580.163 5.333 580.163 13.165V19.84C580.163 24.5867 578.472 27.6127 575.09 28.918C578.056 29.986 579.54 32.4187 579.54 36.216V59H567.08V37.195C567.08 36.0083 566.516 35.415 565.389 35.415H559.426ZM559.426 9.872V26.693H566.012C566.486 26.693 566.872 26.515 567.169 26.159C567.525 25.803 567.703 25.3877 567.703 24.913V11.652C567.703 11.1773 567.525 10.762 567.169 10.406C566.872 10.05 566.486 9.872 566.012 9.872H559.426ZM600.623 1.417V59H588.163V1.417H600.623ZM606.598 12.008V1.417H637.748V12.008H628.403V59H615.943V12.008H606.598ZM676.815 1.417L664.444 37.996V59H651.984V37.996L639.613 1.417H651.361L658.214 25.447L665.067 1.417H676.815Z" fill="url(#paint0_linear_3114_45)"/>
<defs>
<linearGradient id="paint0_linear_3114_45" x1="7.00001" y1="-33" x2="790.5" y2="95.5" gradientUnits="userSpaceOnUse">
<stop stop-color="white"/>
<stop offset="1" stop-color="white" stop-opacity="0"/>
</linearGradient>
</defs>
</svg>









