<svg width="199" height="41" viewBox="0 0 199 41" fill="none" xmlns="http://www.w3.org/2000/svg">
<mask id="path-1-outside-1_3117_440" maskUnits="userSpaceOnUse" x="0" y="0" width="199" height="41" fill="black">
<rect fill="white" width="199" height="41"/>
<path d="M16.0177 2.121C20.7297 2.121 23.0857 4.629 23.0857 9.645V16.998C23.0857 22.014 20.7297 24.522 16.0177 24.522H9.57671V39H1.59671V2.121H16.0177ZM15.1057 17.91V8.733C15.1057 8.429 14.9917 8.163 14.7637 7.935C14.5737 7.707 14.3267 7.593 14.0227 7.593H9.57671V19.05H14.0227C14.3267 19.05 14.5737 18.936 14.7637 18.708C14.9917 18.48 15.1057 18.214 15.1057 17.91ZM41.7412 1.551C46.4532 1.551 48.8092 4.059 48.8092 9.075V39H40.8292V26.631H35.0722V39H27.0922V9.075C27.0922 4.059 29.4482 1.551 34.1602 1.551H41.7412ZM35.0722 20.475H40.8292V8.106C40.8292 7.802 40.7152 7.536 40.4872 7.308C40.2972 7.08 40.0502 6.966 39.7462 6.966H36.1552C35.8512 6.966 35.5852 7.08 35.3572 7.308C35.1672 7.536 35.0722 7.802 35.0722 8.106V20.475ZM62.7372 23.895V39H54.7572V2.121H68.9502C73.6622 2.121 76.0182 4.629 76.0182 9.645V13.92C76.0182 16.96 74.9352 18.898 72.7692 19.734C74.6692 20.418 75.6192 21.976 75.6192 24.408V39H67.6392V25.035C67.6392 24.275 67.2782 23.895 66.5562 23.895H62.7372ZM62.7372 7.536V18.309H66.9552C67.2592 18.309 67.5062 18.195 67.6962 17.967C67.9242 17.739 68.0382 17.473 68.0382 17.169V8.676C68.0382 8.372 67.9242 8.106 67.6962 7.878C67.5062 7.65 67.2592 7.536 66.9552 7.536H62.7372ZM79.033 8.904V2.121H98.983V8.904H92.998V39H85.018V8.904H79.033ZM123.775 39H115.795V8.391C115.795 8.087 115.681 7.821 115.453 7.593C115.263 7.365 115.016 7.251 114.712 7.251H111.634C111.33 7.251 111.064 7.365 110.836 7.593C110.646 7.821 110.551 8.087 110.551 8.391V39H102.571V9.075C102.571 4.059 104.927 1.551 109.639 1.551H116.707C121.419 1.551 123.775 4.059 123.775 9.075V39ZM137.104 32.388H145.939V39H129.124V2.121H145.939V8.619H137.104V17.283H145.369V23.553H137.104V32.388ZM158.535 23.895V39H150.555V2.121H164.748C169.46 2.121 171.816 4.629 171.816 9.645V13.92C171.816 16.96 170.733 18.898 168.567 19.734C170.467 20.418 171.417 21.976 171.417 24.408V39H163.437V25.035C163.437 24.275 163.076 23.895 162.354 23.895H158.535ZM158.535 7.536V18.309H162.753C163.057 18.309 163.304 18.195 163.494 17.967C163.722 17.739 163.836 17.473 163.836 17.169V8.676C163.836 8.372 163.722 8.106 163.494 7.878C163.304 7.65 163.057 7.536 162.753 7.536H158.535ZM197.403 11.811H189.822V8.904C189.822 8.6 189.708 8.334 189.48 8.106C189.29 7.878 189.043 7.764 188.739 7.764H185.604C185.3 7.764 185.034 7.878 184.806 8.106C184.616 8.334 184.521 8.6 184.521 8.904V15.459C184.521 15.763 184.616 16.029 184.806 16.257C185.034 16.485 185.3 16.599 185.604 16.599H190.734C195.446 16.675 197.802 19.183 197.802 24.123V32.046C197.802 37.062 195.446 39.57 190.734 39.57H184.008C179.296 39.57 176.94 37.062 176.94 32.046V28.227H184.521V32.331C184.521 32.635 184.616 32.901 184.806 33.129C185.034 33.357 185.3 33.471 185.604 33.471H189.138C189.442 33.471 189.689 33.357 189.879 33.129C190.107 32.901 190.221 32.635 190.221 32.331V25.092C190.221 24.788 190.107 24.522 189.879 24.294C189.689 24.066 189.442 23.952 189.138 23.952H184.008C179.296 23.952 176.94 21.444 176.94 16.428V9.075C176.94 4.059 179.296 1.551 184.008 1.551H190.335C195.047 1.551 197.403 4.059 197.403 9.075V11.811Z"/>
</mask>
<path d="M9.57671 24.522V23.522H8.57671V24.522H9.57671ZM9.57671 39V40H10.5767V39H9.57671ZM1.59671 39H0.59671V40H1.59671V39ZM1.59671 2.121V1.121H0.59671V2.121H1.59671ZM14.7637 7.935L13.9955 8.57518L14.0245 8.61003L14.0566 8.64211L14.7637 7.935ZM9.57671 7.593V6.593H8.57671V7.593H9.57671ZM9.57671 19.05H8.57671V20.05H9.57671V19.05ZM14.7637 18.708L14.0566 18.0009L14.0245 18.033L13.9955 18.0678L14.7637 18.708ZM16.0177 3.121C18.203 3.121 19.6626 3.69958 20.5899 4.68667C21.5282 5.68552 22.0857 7.27612 22.0857 9.645H24.0857C24.0857 6.99788 23.4653 4.82648 22.0476 3.31732C20.6188 1.79642 18.5444 1.121 16.0177 1.121V3.121ZM22.0857 9.645V16.998H24.0857V9.645H22.0857ZM22.0857 16.998C22.0857 19.3669 21.5282 20.9575 20.5899 21.9563C19.6626 22.9434 18.203 23.522 16.0177 23.522V25.522C18.5444 25.522 20.6188 24.8466 22.0476 23.3257C23.4653 21.8165 24.0857 19.6451 24.0857 16.998H22.0857ZM16.0177 23.522H9.57671V25.522H16.0177V23.522ZM8.57671 24.522V39H10.5767V24.522H8.57671ZM9.57671 38H1.59671V40H9.57671V38ZM2.59671 39V2.121H0.59671V39H2.59671ZM1.59671 3.121H16.0177V1.121H1.59671V3.121ZM16.1057 17.91V8.733H14.1057V17.91H16.1057ZM16.1057 8.733C16.1057 8.14644 15.8737 7.6308 15.4708 7.22789L14.0566 8.64211C14.0909 8.6764 14.0996 8.69598 14.1011 8.69942C14.102 8.7017 14.1057 8.70947 14.1057 8.733H16.1057ZM15.5319 7.29481C15.1467 6.8325 14.6152 6.593 14.0227 6.593V8.593C14.0361 8.593 14.0403 8.59423 14.0374 8.59364C14.0342 8.59297 14.0267 8.59097 14.0169 8.58646C14.0071 8.58192 13.9992 8.57682 13.9942 8.57288C13.9894 8.56912 13.9902 8.56877 13.9955 8.57518L15.5319 7.29481ZM14.0227 6.593H9.57671V8.593H14.0227V6.593ZM8.57671 7.593V19.05H10.5767V7.593H8.57671ZM9.57671 20.05H14.0227V18.05H9.57671V20.05ZM14.0227 20.05C14.6152 20.05 15.1467 19.8105 15.5319 19.3482L13.9955 18.0678C13.9902 18.0742 13.9894 18.0739 13.9942 18.0701C13.9992 18.0662 14.0071 18.0611 14.0169 18.0565C14.0267 18.052 14.0342 18.05 14.0374 18.0494C14.0403 18.0488 14.0361 18.05 14.0227 18.05V20.05ZM15.4708 19.4151C15.8737 19.0122 16.1057 18.4966 16.1057 17.91H14.1057C14.1057 17.9335 14.102 17.9413 14.1011 17.9436C14.0996 17.947 14.0909 17.9666 14.0566 18.0009L15.4708 19.4151ZM48.8092 39V40H49.8092V39H48.8092ZM40.8292 39H39.8292V40H40.8292V39ZM40.8292 26.631H41.8292V25.631H40.8292V26.631ZM35.0722 26.631V25.631H34.0722V26.631H35.0722ZM35.0722 39V40H36.0722V39H35.0722ZM27.0922 39H26.0922V40H27.0922V39ZM35.0722 20.475H34.0722V21.475H35.0722V20.475ZM40.8292 20.475V21.475H41.8292V20.475H40.8292ZM40.4872 7.308L39.719 7.94818L39.748 7.98303L39.7801 8.0151L40.4872 7.308ZM35.3572 7.308L34.6501 6.60089L34.618 6.63297L34.589 6.66782L35.3572 7.308ZM41.7412 2.551C43.9265 2.551 45.3861 3.12958 46.3133 4.11667C47.2516 5.11552 47.8092 6.70612 47.8092 9.075H49.8092C49.8092 6.42788 49.1887 4.25648 47.771 2.74732C46.3423 1.22642 44.2679 0.551 41.7412 0.551V2.551ZM47.8092 9.075V39H49.8092V9.075H47.8092ZM48.8092 38H40.8292V40H48.8092V38ZM41.8292 39V26.631H39.8292V39H41.8292ZM40.8292 25.631H35.0722V27.631H40.8292V25.631ZM34.0722 26.631V39H36.0722V26.631H34.0722ZM35.0722 38H27.0922V40H35.0722V38ZM28.0922 39V9.075H26.0922V39H28.0922ZM28.0922 9.075C28.0922 6.70612 28.6497 5.11552 29.588 4.11667C30.5153 3.12958 31.9749 2.551 34.1602 2.551V0.551C31.6335 0.551 29.5591 1.22642 28.1303 2.74732C26.7126 4.25648 26.0922 6.42788 26.0922 9.075H28.0922ZM34.1602 2.551H41.7412V0.551H34.1602V2.551ZM35.0722 21.475H40.8292V19.475H35.0722V21.475ZM41.8292 20.475V8.106H39.8292V20.475H41.8292ZM41.8292 8.106C41.8292 7.51945 41.5972 7.00381 41.1943 6.60089L39.7801 8.0151C39.8144 8.0494 39.8231 8.06898 39.8245 8.07242C39.8255 8.0747 39.8292 8.08247 39.8292 8.106H41.8292ZM41.2554 6.66781C40.8701 6.2055 40.3386 5.966 39.7462 5.966V7.966C39.7595 7.966 39.7638 7.96723 39.7609 7.96663C39.7577 7.96597 39.7502 7.96397 39.7404 7.95946C39.7306 7.95492 39.7227 7.94982 39.7177 7.94588C39.7129 7.94212 39.7136 7.94177 39.719 7.94818L41.2554 6.66781ZM39.7462 5.966H36.1552V7.966H39.7462V5.966ZM36.1552 5.966C35.5686 5.966 35.053 6.19798 34.6501 6.60089L36.0643 8.0151C36.0986 7.98081 36.1182 7.97212 36.1216 7.97064C36.1239 7.96967 36.1317 7.966 36.1552 7.966V5.966ZM34.589 6.66782C34.2453 7.08023 34.0722 7.57426 34.0722 8.106H36.0722C36.0722 8.02974 36.0891 7.99176 36.1254 7.94818L34.589 6.66782ZM34.0722 8.106V20.475H36.0722V8.106H34.0722ZM62.7372 23.895V22.895H61.7372V23.895H62.7372ZM62.7372 39V40H63.7372V39H62.7372ZM54.7572 39H53.7572V40H54.7572V39ZM54.7572 2.121V1.121H53.7572V2.121H54.7572ZM72.7692 19.734L72.4091 18.8011L69.9075 19.7666L72.4305 20.6749L72.7692 19.734ZM75.6192 39V40H76.6192V39H75.6192ZM67.6392 39H66.6392V40H67.6392V39ZM62.7372 7.536V6.536H61.7372V7.536H62.7372ZM62.7372 18.309H61.7372V19.309H62.7372V18.309ZM67.6962 17.967L66.9891 17.2599L66.957 17.292L66.928 17.3268L67.6962 17.967ZM67.6962 7.878L66.928 8.51818L66.957 8.55303L66.9891 8.58511L67.6962 7.878ZM61.7372 23.895V39H63.7372V23.895H61.7372ZM62.7372 38H54.7572V40H62.7372V38ZM55.7572 39V2.121H53.7572V39H55.7572ZM54.7572 3.121H68.9502V1.121H54.7572V3.121ZM68.9502 3.121C71.1355 3.121 72.5951 3.69958 73.5224 4.68667C74.4607 5.68552 75.0182 7.27612 75.0182 9.645H77.0182C77.0182 6.99788 76.3978 4.82648 74.9801 3.31732C73.5513 1.79642 71.4769 1.121 68.9502 1.121V3.121ZM75.0182 9.645V13.92H77.0182V9.645H75.0182ZM75.0182 13.92C75.0182 15.3295 74.7661 16.3908 74.333 17.1657C73.9109 17.9211 73.2853 18.4629 72.4091 18.8011L73.1293 20.6669C74.4191 20.1691 75.4181 19.3239 76.0789 18.1413C76.7289 16.9782 77.0182 15.5505 77.0182 13.92H75.0182ZM72.4305 20.6749C73.1902 20.9484 73.7095 21.3728 74.0529 21.9361C74.4055 22.5143 74.6192 23.3163 74.6192 24.408H76.6192C76.6192 23.0677 76.3579 21.8747 75.7605 20.8949C75.154 19.9002 74.2482 19.2036 73.1079 18.7931L72.4305 20.6749ZM74.6192 24.408V39H76.6192V24.408H74.6192ZM75.6192 38H67.6392V40H75.6192V38ZM68.6392 39V25.035H66.6392V39H68.6392ZM68.6392 25.035C68.6392 24.5133 68.5162 23.9362 68.0935 23.4912C67.6616 23.0366 67.0848 22.895 66.5562 22.895V24.895C66.6518 24.895 66.6934 24.9079 66.699 24.9099C66.6991 24.9099 66.6726 24.8994 66.6435 24.8687C66.6154 24.8392 66.6124 24.8198 66.6182 24.8381C66.6253 24.8607 66.6392 24.9211 66.6392 25.035H68.6392ZM66.5562 22.895H62.7372V24.895H66.5562V22.895ZM61.7372 7.536V18.309H63.7372V7.536H61.7372ZM62.7372 19.309H66.9552V17.309H62.7372V19.309ZM66.9552 19.309C67.5477 19.309 68.0792 19.0695 68.4644 18.6072L66.928 17.3268C66.9227 17.3332 66.9219 17.3329 66.9267 17.3291C66.9318 17.3252 66.9396 17.3201 66.9494 17.3155C66.9592 17.311 66.9667 17.309 66.9699 17.3084C66.9728 17.3078 66.9686 17.309 66.9552 17.309V19.309ZM68.4033 18.6741C68.8062 18.2712 69.0382 17.7556 69.0382 17.169H67.0382C67.0382 17.1925 67.0346 17.2003 67.0336 17.2026C67.0321 17.206 67.0234 17.2256 66.9891 17.2599L68.4033 18.6741ZM69.0382 17.169V8.676H67.0382V17.169H69.0382ZM69.0382 8.676C69.0382 8.08945 68.8062 7.5738 68.4033 7.17089L66.9891 8.58511C67.0234 8.6194 67.0321 8.63898 67.0336 8.64242C67.0346 8.6447 67.0382 8.65247 67.0382 8.676H69.0382ZM68.4645 7.23782C68.0792 6.7755 67.5477 6.536 66.9552 6.536V8.536C66.9686 8.536 66.9728 8.53723 66.9699 8.53663C66.9667 8.53597 66.9592 8.53397 66.9494 8.52946C66.9396 8.52492 66.9318 8.51981 66.9267 8.51588C66.9219 8.51212 66.9227 8.51177 66.928 8.51818L68.4645 7.23782ZM66.9552 6.536H62.7372V8.536H66.9552V6.536ZM79.033 8.904H78.033V9.904H79.033V8.904ZM79.033 2.121V1.121H78.033V2.121H79.033ZM98.983 2.121H99.983V1.121H98.983V2.121ZM98.983 8.904V9.904H99.983V8.904H98.983ZM92.998 8.904V7.904H91.998V8.904H92.998ZM92.998 39V40H93.998V39H92.998ZM85.018 39H84.018V40H85.018V39ZM85.018 8.904H86.018V7.904H85.018V8.904ZM80.033 8.904V2.121H78.033V8.904H80.033ZM79.033 3.121H98.983V1.121H79.033V3.121ZM97.983 2.121V8.904H99.983V2.121H97.983ZM98.983 7.904H92.998V9.904H98.983V7.904ZM91.998 8.904V39H93.998V8.904H91.998ZM92.998 38H85.018V40H92.998V38ZM86.018 39V8.904H84.018V39H86.018ZM85.018 7.904H79.033V9.904H85.018V7.904ZM123.775 39V40H124.775V39H123.775ZM115.795 39H114.795V40H115.795V39ZM115.453 7.593L114.685 8.23318L114.714 8.26803L114.746 8.30011L115.453 7.593ZM110.836 7.593L110.129 6.8859L110.097 6.91797L110.068 6.95281L110.836 7.593ZM110.551 39V40H111.551V39H110.551ZM102.571 39H101.571V40H102.571V39ZM123.775 38H115.795V40H123.775V38ZM116.795 39V8.391H114.795V39H116.795ZM116.795 8.391C116.795 7.80445 116.563 7.2888 116.16 6.88589L114.746 8.30011C114.781 8.3344 114.789 8.35398 114.791 8.35742C114.792 8.3597 114.795 8.36747 114.795 8.391H116.795ZM116.222 6.95282C115.836 6.4905 115.305 6.251 114.712 6.251V8.251C114.726 8.251 114.73 8.25223 114.727 8.25163C114.724 8.25097 114.716 8.24897 114.707 8.24446C114.697 8.23992 114.689 8.23481 114.684 8.23088C114.679 8.22712 114.68 8.22677 114.685 8.23318L116.222 6.95282ZM114.712 6.251H111.634V8.251H114.712V6.251ZM111.634 6.251C111.048 6.251 110.532 6.48298 110.129 6.8859L111.543 8.3001C111.578 8.26581 111.597 8.25712 111.601 8.25564C111.603 8.25466 111.611 8.251 111.634 8.251V6.251ZM110.068 6.95281C109.724 7.36523 109.551 7.85926 109.551 8.391H111.551C111.551 8.31474 111.568 8.27676 111.605 8.23318L110.068 6.95281ZM109.551 8.391V39H111.551V8.391H109.551ZM110.551 38H102.571V40H110.551V38ZM103.571 39V9.075H101.571V39H103.571ZM103.571 9.075C103.571 6.70612 104.129 5.11552 105.067 4.11667C105.994 3.12958 107.454 2.551 109.639 2.551V0.551C107.113 0.551 105.038 1.22642 103.609 2.74732C102.192 4.25648 101.571 6.42788 101.571 9.075H103.571ZM109.639 2.551H116.707V0.551H109.639V2.551ZM116.707 2.551C118.893 2.551 120.352 3.12958 121.279 4.11667C122.218 5.11552 122.775 6.70612 122.775 9.075H124.775C124.775 6.42788 124.155 4.25648 122.737 2.74732C121.308 1.22642 119.234 0.551 116.707 0.551V2.551ZM122.775 9.075V39H124.775V9.075H122.775ZM137.104 32.388H136.104V33.388H137.104V32.388ZM145.939 32.388H146.939V31.388H145.939V32.388ZM145.939 39V40H146.939V39H145.939ZM129.124 39H128.124V40H129.124V39ZM129.124 2.121V1.121H128.124V2.121H129.124ZM145.939 2.121H146.939V1.121H145.939V2.121ZM145.939 8.619V9.619H146.939V8.619H145.939ZM137.104 8.619V7.619H136.104V8.619H137.104ZM137.104 17.283H136.104V18.283H137.104V17.283ZM145.369 17.283H146.369V16.283H145.369V17.283ZM145.369 23.553V24.553H146.369V23.553H145.369ZM137.104 23.553V22.553H136.104V23.553H137.104ZM137.104 33.388H145.939V31.388H137.104V33.388ZM144.939 32.388V39H146.939V32.388H144.939ZM145.939 38H129.124V40H145.939V38ZM130.124 39V2.121H128.124V39H130.124ZM129.124 3.121H145.939V1.121H129.124V3.121ZM144.939 2.121V8.619H146.939V2.121H144.939ZM145.939 7.619H137.104V9.619H145.939V7.619ZM136.104 8.619V17.283H138.104V8.619H136.104ZM137.104 18.283H145.369V16.283H137.104V18.283ZM144.369 17.283V23.553H146.369V17.283H144.369ZM145.369 22.553H137.104V24.553H145.369V22.553ZM136.104 23.553V32.388H138.104V23.553H136.104ZM158.535 23.895V22.895H157.535V23.895H158.535ZM158.535 39V40H159.535V39H158.535ZM150.555 39H149.555V40H150.555V39ZM150.555 2.121V1.121H149.555V2.121H150.555ZM168.567 19.734L168.207 18.8011L165.705 19.7666L168.228 20.6749L168.567 19.734ZM171.417 39V40H172.417V39H171.417ZM163.437 39H162.437V40H163.437V39ZM158.535 7.536V6.536H157.535V7.536H158.535ZM158.535 18.309H157.535V19.309H158.535V18.309ZM163.494 17.967L162.787 17.2599L162.755 17.292L162.726 17.3268L163.494 17.967ZM163.494 7.878L162.726 8.51818L162.755 8.55303L162.787 8.58511L163.494 7.878ZM157.535 23.895V39H159.535V23.895H157.535ZM158.535 38H150.555V40H158.535V38ZM151.555 39V2.121H149.555V39H151.555ZM150.555 3.121H164.748V1.121H150.555V3.121ZM164.748 3.121C166.933 3.121 168.393 3.69958 169.32 4.68667C170.259 5.68552 170.816 7.27612 170.816 9.645H172.816C172.816 6.99788 172.196 4.82648 170.778 3.31732C169.349 1.79642 167.275 1.121 164.748 1.121V3.121ZM170.816 9.645V13.92H172.816V9.645H170.816ZM170.816 13.92C170.816 15.3295 170.564 16.3908 170.131 17.1657C169.709 17.9211 169.083 18.4629 168.207 18.8011L168.927 20.6669C170.217 20.1691 171.216 19.3239 171.877 18.1413C172.527 16.9782 172.816 15.5505 172.816 13.92H170.816ZM168.228 20.6749C168.988 20.9484 169.507 21.3728 169.851 21.9361C170.203 22.5143 170.417 23.3163 170.417 24.408H172.417C172.417 23.0677 172.156 21.8747 171.558 20.8949C170.952 19.9002 170.046 19.2036 168.906 18.7931L168.228 20.6749ZM170.417 24.408V39H172.417V24.408H170.417ZM171.417 38H163.437V40H171.417V38ZM164.437 39V25.035H162.437V39H164.437ZM164.437 25.035C164.437 24.5133 164.314 23.9362 163.891 23.4912C163.459 23.0366 162.883 22.895 162.354 22.895V24.895C162.45 24.895 162.491 24.9079 162.497 24.9099C162.497 24.9099 162.47 24.8994 162.441 24.8687C162.413 24.8392 162.41 24.8198 162.416 24.8381C162.423 24.8607 162.437 24.9211 162.437 25.035H164.437ZM162.354 22.895H158.535V24.895H162.354V22.895ZM157.535 7.536V18.309H159.535V7.536H157.535ZM158.535 19.309H162.753V17.309H158.535V19.309ZM162.753 19.309C163.346 19.309 163.877 19.0695 164.262 18.6072L162.726 17.3268C162.721 17.3332 162.72 17.3329 162.725 17.3291C162.73 17.3252 162.737 17.3201 162.747 17.3155C162.757 17.311 162.765 17.309 162.768 17.3084C162.771 17.3078 162.766 17.309 162.753 17.309V19.309ZM164.201 18.6741C164.604 18.2712 164.836 17.7556 164.836 17.169H162.836C162.836 17.1925 162.832 17.2003 162.831 17.2026C162.83 17.206 162.821 17.2256 162.787 17.2599L164.201 18.6741ZM164.836 17.169V8.676H162.836V17.169H164.836ZM164.836 8.676C164.836 8.08945 164.604 7.5738 164.201 7.17089L162.787 8.58511C162.821 8.6194 162.83 8.63898 162.831 8.64242C162.832 8.6447 162.836 8.65247 162.836 8.676H164.836ZM164.262 7.23782C163.877 6.7755 163.346 6.536 162.753 6.536V8.536C162.766 8.536 162.771 8.53723 162.768 8.53663C162.765 8.53597 162.757 8.53397 162.747 8.52946C162.737 8.52492 162.73 8.51981 162.725 8.51588C162.72 8.51212 162.721 8.51177 162.726 8.51818L164.262 7.23782ZM162.753 6.536H158.535V8.536H162.753V6.536ZM197.403 11.811V12.811H198.403V11.811H197.403ZM189.822 11.811H188.822V12.811H189.822V11.811ZM189.48 8.106L188.712 8.74618L188.741 8.78103L188.773 8.8131L189.48 8.106ZM184.806 8.106L184.099 7.39889L184.067 7.43097L184.038 7.46581L184.806 8.106ZM184.806 16.257L184.038 16.8972L184.067 16.932L184.099 16.9641L184.806 16.257ZM190.734 16.599L190.75 15.5991L190.742 15.599H190.734V16.599ZM176.94 28.227V27.227H175.94V28.227H176.94ZM184.521 28.227H185.521V27.227H184.521V28.227ZM184.806 33.129L184.038 33.7692L184.067 33.804L184.099 33.8361L184.806 33.129ZM189.879 33.129L189.172 32.4219L189.14 32.454L189.111 32.4888L189.879 33.129ZM189.879 24.294L189.111 24.9342L189.14 24.969L189.172 25.0011L189.879 24.294ZM197.403 10.811H189.822V12.811H197.403V10.811ZM190.822 11.811V8.904H188.822V11.811H190.822ZM190.822 8.904C190.822 8.31745 190.59 7.8018 190.187 7.39889L188.773 8.8131C188.807 8.8474 188.816 8.86698 188.817 8.87042C188.818 8.8727 188.822 8.88047 188.822 8.904H190.822ZM190.248 7.46581C189.863 7.0035 189.331 6.764 188.739 6.764V8.764C188.752 8.764 188.756 8.76523 188.754 8.76463C188.75 8.76397 188.743 8.76197 188.733 8.75746C188.723 8.75292 188.715 8.74781 188.71 8.74388C188.706 8.74012 188.706 8.73977 188.712 8.74618L190.248 7.46581ZM188.739 6.764H185.604V8.764H188.739V6.764ZM185.604 6.764C185.017 6.764 184.502 6.99598 184.099 7.39889L185.513 8.8131C185.547 8.77881 185.567 8.77012 185.57 8.76864C185.573 8.76766 185.58 8.764 185.604 8.764V6.764ZM184.038 7.46581C183.694 7.87824 183.521 8.37226 183.521 8.904H185.521C185.521 8.82774 185.538 8.78976 185.574 8.74618L184.038 7.46581ZM183.521 8.904V15.459H185.521V8.904H183.521ZM183.521 15.459C183.521 15.9907 183.694 16.4848 184.038 16.8972L185.574 15.6168C185.538 15.5732 185.521 15.5353 185.521 15.459H183.521ZM184.099 16.9641C184.502 17.367 185.017 17.599 185.604 17.599V15.599C185.58 15.599 185.573 15.5953 185.57 15.5944C185.567 15.5929 185.547 15.5842 185.513 15.5499L184.099 16.9641ZM185.604 17.599H190.734V15.599H185.604V17.599ZM190.718 17.5989C192.906 17.6342 194.373 18.2289 195.306 19.2217C196.247 20.223 196.802 21.797 196.802 24.123H198.802C198.802 21.509 198.179 19.359 196.764 17.8523C195.34 16.3371 193.274 15.6398 190.75 15.5991L190.718 17.5989ZM196.802 24.123V32.046H198.802V24.123H196.802ZM196.802 32.046C196.802 34.4149 196.244 36.0055 195.306 37.0043C194.379 37.9914 192.919 38.57 190.734 38.57V40.57C193.261 40.57 195.335 39.8946 196.764 38.3737C198.181 36.8645 198.802 34.6931 198.802 32.046H196.802ZM190.734 38.57H184.008V40.57H190.734V38.57ZM184.008 38.57C181.823 38.57 180.363 37.9914 179.436 37.0043C178.497 36.0055 177.94 34.4149 177.94 32.046H175.94C175.94 34.6931 176.56 36.8645 177.978 38.3737C179.407 39.8946 181.481 40.57 184.008 40.57V38.57ZM177.94 32.046V28.227H175.94V32.046H177.94ZM176.94 29.227H184.521V27.227H176.94V29.227ZM183.521 28.227V32.331H185.521V28.227H183.521ZM183.521 32.331C183.521 32.8627 183.694 33.3568 184.038 33.7692L185.574 32.4888C185.538 32.4452 185.521 32.4073 185.521 32.331H183.521ZM184.099 33.8361C184.502 34.239 185.017 34.471 185.604 34.471V32.471C185.58 32.471 185.573 32.4673 185.57 32.4664C185.567 32.4649 185.547 32.4562 185.513 32.4219L184.099 33.8361ZM185.604 34.471H189.138V32.471H185.604V34.471ZM189.138 34.471C189.73 34.471 190.262 34.2315 190.647 33.7692L189.111 32.4888C189.105 32.4952 189.105 32.4949 189.109 32.4911C189.114 32.4872 189.122 32.4821 189.132 32.4775C189.142 32.473 189.149 32.471 189.153 32.4704C189.155 32.4698 189.151 32.471 189.138 32.471V34.471ZM190.586 33.8361C190.989 33.4332 191.221 32.9176 191.221 32.331H189.221C189.221 32.3545 189.217 32.3623 189.216 32.3646C189.215 32.368 189.206 32.3876 189.172 32.4219L190.586 33.8361ZM191.221 32.331V25.092H189.221V32.331H191.221ZM191.221 25.092C191.221 24.5054 190.989 23.9898 190.586 23.5869L189.172 25.0011C189.206 25.0354 189.215 25.055 189.216 25.0584C189.217 25.0607 189.221 25.0685 189.221 25.092H191.221ZM190.647 23.6538C190.262 23.1915 189.73 22.952 189.138 22.952V24.952C189.151 24.952 189.155 24.9532 189.153 24.9526C189.149 24.952 189.142 24.95 189.132 24.9455C189.122 24.9409 189.114 24.9358 189.109 24.9319C189.105 24.9281 189.105 24.9278 189.111 24.9342L190.647 23.6538ZM189.138 22.952H184.008V24.952H189.138V22.952ZM184.008 22.952C181.823 22.952 180.363 22.3734 179.436 21.3863C178.497 20.3875 177.94 18.7969 177.94 16.428H175.94C175.94 19.0751 176.56 21.2465 177.978 22.7557C179.407 24.2766 181.481 24.952 184.008 24.952V22.952ZM177.94 16.428V9.075H175.94V16.428H177.94ZM177.94 9.075C177.94 6.70612 178.497 5.11552 179.436 4.11667C180.363 3.12958 181.823 2.551 184.008 2.551V0.551C181.481 0.551 179.407 1.22642 177.978 2.74732C176.56 4.25648 175.94 6.42788 175.94 9.075H177.94ZM184.008 2.551H190.335V0.551H184.008V2.551ZM190.335 2.551C192.52 2.551 193.98 3.12958 194.907 4.11667C195.845 5.11552 196.403 6.70612 196.403 9.075H198.403C198.403 6.42788 197.782 4.25648 196.365 2.74732C194.936 1.22642 192.862 0.551 190.335 0.551V2.551ZM196.403 9.075V11.811H198.403V9.075H196.403Z" fill="url(#paint0_linear_3117_440)" mask="url(#path-1-outside-1_3117_440)"/>
<defs>
<linearGradient id="paint0_linear_3117_440" x1="-19" y1="8.22784" x2="235.495" y2="88.719" gradientUnits="userSpaceOnUse">
<stop stop-color="white"/>
<stop offset="1" stop-color="white" stop-opacity="0"/>
</linearGradient>
</defs>
</svg>
