<svg width="454" height="65" viewBox="0 0 454 65" fill="none" xmlns="http://www.w3.org/2000/svg">
<path d="M14.43 39.362V64H0.85V1.241H14.43V27.528H25.197V1.241H38.777V64H25.197V39.362H14.43ZM85.4545 13.075V52.166C85.4545 60.702 81.4451 64.97 73.4265 64.97H60.5255C52.5068 64.97 48.4975 60.702 48.4975 52.166V13.075C48.4975 4.539 52.5068 0.270999 60.5255 0.270999H73.4265C81.4451 0.270999 85.4545 4.539 85.4545 13.075ZM71.8745 53.718V11.426C71.8745 10.9087 71.6805 10.456 71.2925 10.068C70.9691 9.68 70.5488 9.486 70.0315 9.486H63.9205C63.4031 9.486 62.9505 9.68 62.5625 10.068C62.2391 10.456 62.0775 10.9087 62.0775 11.426V53.718C62.0775 54.2353 62.2391 54.688 62.5625 55.076C62.9505 55.464 63.4031 55.658 63.9205 55.658H70.0315C70.5488 55.658 70.9691 55.464 71.2925 55.076C71.6805 54.688 71.8745 54.2353 71.8745 53.718ZM118.665 1.241H130.693L137.968 48.48L143.4 1.241H156.592L146.407 64H130.984L124.679 25.491L118.374 64H102.951L92.7658 1.241H105.958L111.39 48.48L118.665 1.241ZM180.083 12.784V1.241H214.033V12.784H203.848V64H190.268V12.784H180.083ZM257.194 13.075V52.166C257.194 60.702 253.184 64.97 245.166 64.97H232.265C224.246 64.97 220.237 60.702 220.237 52.166V13.075C220.237 4.539 224.246 0.270999 232.265 0.270999H245.166C253.184 0.270999 257.194 4.539 257.194 13.075ZM243.614 53.718V11.426C243.614 10.9087 243.42 10.456 243.032 10.068C242.708 9.68 242.288 9.486 241.771 9.486H235.66C235.142 9.486 234.69 9.68 234.302 10.068C233.978 10.456 233.817 10.9087 233.817 11.426V53.718C233.817 54.2353 233.978 54.688 234.302 55.076C234.69 55.464 235.142 55.658 235.66 55.658H241.771C242.288 55.658 242.708 55.464 243.032 55.076C243.42 54.688 243.614 54.2353 243.614 53.718ZM300.312 64H286.732V13.075C286.732 4.539 290.742 0.270999 298.76 0.270999H305.938C310.659 0.270999 314.022 1.823 316.026 4.927C317.902 1.823 321.264 0.270999 326.114 0.270999H333.292C341.311 0.270999 345.32 4.539 345.32 13.075V64H331.74V11.911C331.74 11.3937 331.546 10.941 331.158 10.553C330.835 10.165 330.415 9.971 329.897 9.971H324.659C324.142 9.971 323.689 10.165 323.301 10.553C322.978 10.941 322.816 11.3937 322.816 11.911V64H309.236V11.911C309.236 11.3937 309.042 10.941 308.654 10.553C308.331 10.165 307.911 9.971 307.393 9.971H302.155C301.638 9.971 301.185 10.165 300.797 10.553C300.474 10.941 300.312 11.3937 300.312 11.911V64ZM368.234 1.241V64H354.654V1.241H368.234ZM414.322 64H400.742V11.911C400.742 11.3937 400.548 10.941 400.16 10.553C399.837 10.165 399.417 9.971 398.899 9.971H393.661C393.144 9.971 392.691 10.165 392.303 10.553C391.98 10.941 391.818 11.3937 391.818 11.911V64H378.238V13.075C378.238 4.539 382.248 0.270999 390.266 0.270999H402.294C410.313 0.270999 414.322 4.539 414.322 13.075V64ZM419.836 12.784V1.241H453.786V12.784H443.601V64H430.021V12.784H419.836Z" fill="url(#paint0_linear_3143_189)"/>
<defs>
<linearGradient id="paint0_linear_3143_189" x1="4.5" y1="-1.99998" x2="508" y2="64" gradientUnits="userSpaceOnUse">
<stop stop-color="white"/>
<stop offset="1" stop-color="white" stop-opacity="0"/>
</linearGradient>
</defs>
</svg>
