<svg width="7" height="7" viewBox="0 0 7 7" fill="none" xmlns="http://www.w3.org/2000/svg">
<path d="M4.47897 1.34233C4.70792 1.76155 5.23845 2.29208 5.65767 2.52103L6.68559 3.08315C7.1048 3.3121 7.1048 3.68711 6.68559 3.91685L5.65767 4.47897C5.23845 4.70792 4.70792 5.23845 4.47897 5.65767L3.91685 6.68559C3.6879 7.1048 3.31289 7.1048 3.08315 6.68559L2.52103 5.65767C2.29208 5.23845 1.76155 4.70792 1.34233 4.47897L0.314414 3.91685C-0.104805 3.6879 -0.104805 3.31289 0.314414 3.08315L1.34233 2.52103C1.76155 2.29208 2.29208 1.76155 2.52103 1.34233L3.08315 0.314414C3.3121 -0.104805 3.68711 -0.104805 3.91685 0.314414L4.47897 1.34233Z" fill="white"/>
</svg>
