<svg width="339" height="65" viewBox="0 0 339 65" fill="none" xmlns="http://www.w3.org/2000/svg">
<path d="M14.43 38.295V64H0.85V1.241H25.003C33.0217 1.241 37.031 5.509 37.031 14.045V21.32C37.031 26.4933 35.188 29.7913 31.502 31.214C34.7353 32.378 36.352 35.0293 36.352 39.168V64H22.772V40.235C22.772 38.9417 22.1577 38.295 20.929 38.295H14.43ZM14.43 10.456V28.789H21.608C22.1253 28.789 22.5457 28.595 22.869 28.207C23.257 27.819 23.451 27.3663 23.451 26.849V12.396C23.451 11.8787 23.257 11.426 22.869 11.038C22.5457 10.65 22.1253 10.456 21.608 10.456H14.43ZM82.7074 13.075V52.166C82.7074 60.702 78.6981 64.97 70.6794 64.97H57.7784C49.7597 64.97 45.7504 60.702 45.7504 52.166V13.075C45.7504 4.539 49.7597 0.270999 57.7784 0.270999H70.6794C78.6981 0.270999 82.7074 4.539 82.7074 13.075ZM69.1274 53.718V11.426C69.1274 10.9087 68.9334 10.456 68.5454 10.068C68.2221 9.68 67.8017 9.486 67.2844 9.486H61.1734C60.6561 9.486 60.2034 9.68 59.8154 10.068C59.4921 10.456 59.3304 10.9087 59.3304 11.426V53.718C59.3304 54.2353 59.4921 54.688 59.8154 55.076C60.2034 55.464 60.6561 55.658 61.1734 55.658H67.2844C67.8017 55.658 68.2221 55.464 68.5454 55.076C68.9334 54.688 69.1274 54.2353 69.1274 53.718ZM117.664 0.270999C125.682 0.270999 129.692 4.539 129.692 13.075V64H116.112V42.951H106.315V64H92.7348V13.075C92.7348 4.539 96.7441 0.270999 104.763 0.270999H117.664ZM106.315 32.475H116.112V11.426C116.112 10.9087 115.918 10.456 115.53 10.068C115.206 9.68 114.786 9.486 114.269 9.486H108.158C107.64 9.486 107.188 9.68 106.8 10.068C106.476 10.456 106.315 10.9087 106.315 11.426V32.475ZM164.743 1.241C172.762 1.241 176.771 5.509 176.771 14.045V51.196C176.771 59.732 172.762 64 164.743 64H139.814V1.241H164.743ZM163.191 52.748V12.396C163.191 11.8787 162.997 11.426 162.609 11.038C162.286 10.65 161.865 10.456 161.348 10.456H153.394V54.688H161.348C161.865 54.688 162.286 54.494 162.609 54.106C162.997 53.718 163.191 53.2653 163.191 52.748ZM200.376 64H186.796V13.075C186.796 4.539 190.805 0.270999 198.824 0.270999H206.002C210.723 0.270999 214.085 1.823 216.09 4.927C217.965 1.823 221.328 0.270999 226.178 0.270999H233.356C241.375 0.270999 245.384 4.539 245.384 13.075V64H231.804V11.911C231.804 11.3937 231.61 10.941 231.222 10.553C230.899 10.165 230.478 9.971 229.961 9.971H224.723C224.206 9.971 223.753 10.165 223.365 10.553C223.042 10.941 222.88 11.3937 222.88 11.911V64H209.3V11.911C209.3 11.3937 209.106 10.941 208.718 10.553C208.395 10.165 207.974 9.971 207.457 9.971H202.219C201.702 9.971 201.249 10.165 200.861 10.553C200.538 10.941 200.376 11.3937 200.376 11.911V64ZM279.646 0.270999C287.665 0.270999 291.674 4.539 291.674 13.075V64H278.094V42.951H268.297V64H254.717V13.075C254.717 4.539 258.727 0.270999 266.745 0.270999H279.646ZM268.297 32.475H278.094V11.426C278.094 10.9087 277.9 10.456 277.512 10.068C277.189 9.68 276.769 9.486 276.251 9.486H270.14C269.623 9.486 269.17 9.68 268.782 10.068C268.459 10.456 268.297 10.9087 268.297 11.426V32.475ZM326.24 1.241C334.259 1.241 338.268 5.509 338.268 14.045V26.558C338.268 35.094 334.259 39.362 326.24 39.362H315.279V64H301.699V1.241H326.24ZM324.688 28.11V12.493C324.688 11.9757 324.494 11.523 324.106 11.135C323.783 10.747 323.363 10.553 322.845 10.553H315.279V30.05H322.845C323.363 30.05 323.783 29.856 324.106 29.468C324.494 29.08 324.688 28.6273 324.688 28.11Z" fill="url(#paint0_linear_3143_139)"/>
<defs>
<linearGradient id="paint0_linear_3143_139" x1="4.5" y1="-1.99998" x2="508" y2="64" gradientUnits="userSpaceOnUse">
<stop stop-color="white"/>
<stop offset="1" stop-color="white" stop-opacity="0"/>
</linearGradient>
</defs>
</svg>

