<svg width="193" height="38" viewBox="0 0 193 38" fill="none" xmlns="http://www.w3.org/2000/svg">
<path d="M8.45 22.425V37H0.75V1.415H14.445C18.9917 1.415 21.265 3.835 21.265 8.675V12.8C21.265 15.7333 20.22 17.6033 18.13 18.41C19.9633 19.07 20.88 20.5733 20.88 22.92V37H13.18V23.525C13.18 22.7917 12.8317 22.425 12.135 22.425H8.45ZM8.45 6.64V17.035H12.52C12.8133 17.035 13.0517 16.925 13.235 16.705C13.455 16.485 13.565 16.2283 13.565 15.935V7.74C13.565 7.44667 13.455 7.19 13.235 6.97C13.0517 6.75 12.8133 6.64 12.52 6.64H8.45ZM47.164 8.125V30.29C47.164 35.13 44.8907 37.55 40.344 37.55H33.029C28.4823 37.55 26.209 35.13 26.209 30.29V8.125C26.209 3.285 28.4823 0.865 33.029 0.865H40.344C44.8907 0.865 47.164 3.285 47.164 8.125ZM39.464 31.17V7.19C39.464 6.89667 39.354 6.64 39.134 6.42C38.9507 6.2 38.7123 6.09 38.419 6.09H34.954C34.6607 6.09 34.404 6.2 34.184 6.42C34.0007 6.64 33.909 6.89667 33.909 7.19V31.17C33.909 31.4633 34.0007 31.72 34.184 31.94C34.404 32.16 34.6607 32.27 34.954 32.27H38.419C38.7123 32.27 38.9507 32.16 39.134 31.94C39.354 31.72 39.464 31.4633 39.464 31.17ZM66.9846 0.865C71.5313 0.865 73.8046 3.285 73.8046 8.125V37H66.1046V25.065H60.5496V37H52.8496V8.125C52.8496 3.285 55.1229 0.865 59.6696 0.865H66.9846ZM60.5496 19.125H66.1046V7.19C66.1046 6.89667 65.9946 6.64 65.7746 6.42C65.5913 6.2 65.3529 6.09 65.0596 6.09H61.5946C61.3013 6.09 61.0446 6.2 60.8246 6.42C60.6413 6.64 60.5496 6.89667 60.5496 7.19V19.125ZM93.6789 1.415C98.2256 1.415 100.499 3.835 100.499 8.675V29.74C100.499 34.58 98.2256 37 93.6789 37H79.5439V1.415H93.6789ZM92.7989 30.62V7.74C92.7989 7.44667 92.6889 7.19 92.4689 6.97C92.2856 6.75 92.0473 6.64 91.7539 6.64H87.2439V31.72H91.7539C92.0473 31.72 92.2856 31.61 92.4689 31.39C92.6889 31.17 92.7989 30.9133 92.7989 30.62ZM113.883 37H106.183V8.125C106.183 3.285 108.457 0.865 113.003 0.865H117.073C119.75 0.865 121.657 1.745 122.793 3.505C123.857 1.745 125.763 0.865 128.513 0.865H132.583C137.13 0.865 139.403 3.285 139.403 8.125V37H131.703V7.465C131.703 7.17167 131.593 6.915 131.373 6.695C131.19 6.475 130.952 6.365 130.658 6.365H127.688C127.395 6.365 127.138 6.475 126.918 6.695C126.735 6.915 126.643 7.17167 126.643 7.465V37H118.943V7.465C118.943 7.17167 118.833 6.915 118.613 6.695C118.43 6.475 118.192 6.365 117.898 6.365H114.928C114.635 6.365 114.378 6.475 114.158 6.695C113.975 6.915 113.883 7.17167 113.883 7.465V37ZM158.83 0.865C163.377 0.865 165.65 3.285 165.65 8.125V37H157.95V25.065H152.395V37H144.695V8.125C144.695 3.285 146.969 0.865 151.515 0.865H158.83ZM152.395 19.125H157.95V7.19C157.95 6.89667 157.84 6.64 157.62 6.42C157.437 6.2 157.199 6.09 156.905 6.09H153.44C153.147 6.09 152.89 6.2 152.67 6.42C152.487 6.64 152.395 6.89667 152.395 7.19V19.125ZM185.25 1.415C189.796 1.415 192.07 3.835 192.07 8.675V15.77C192.07 20.61 189.796 23.03 185.25 23.03H179.035V37H171.335V1.415H185.25ZM184.37 16.65V7.795C184.37 7.50167 184.26 7.245 184.04 7.025C183.856 6.805 183.618 6.695 183.325 6.695H179.035V17.75H183.325C183.618 17.75 183.856 17.64 184.04 17.42C184.26 17.2 184.37 16.9433 184.37 16.65Z" fill="url(#paint0_linear_4070_487)"/>
<defs>
<linearGradient id="paint0_linear_4070_487" x1="1.91555" y1="5.22786" x2="232.711" y2="39.6329" gradientUnits="userSpaceOnUse">
<stop stop-color="white"/>
<stop offset="1" stop-color="white" stop-opacity="0"/>
</linearGradient>
</defs>
</svg>
