<svg width="83" height="33" viewBox="0 0 83 33" fill="none" xmlns="http://www.w3.org/2000/svg">
<rect width="33" height="33" rx="4" fill="#F5C518"/>
<path d="M5.0769 21.2597H7.45672V12.6924H5.0769V21.2597Z" fill="black"/>
<path d="M12.5364 12.6924L12.0039 16.6944L11.6729 14.5176C11.577 13.8204 11.4849 13.2119 11.3967 12.6924H8.40869V21.2597H10.4275L10.4353 15.6023L11.2852 21.2597H12.7225L13.5293 15.4777L13.5351 21.2597H15.5481V12.6924H12.5364Z" fill="black"/>
<path d="M16.4998 21.2597V12.6924H20.2145C21.0544 12.6924 21.7355 13.3682 21.7355 14.2042V19.7478C21.7355 20.5827 21.0558 21.2597 20.2145 21.2597H16.4998ZM19.2759 14.2342C19.1816 14.1833 19.0008 14.1586 18.7383 14.1586V19.7801C19.0851 19.7801 19.2984 19.7178 19.3785 19.5874C19.4586 19.4589 19.4995 19.1112 19.4995 18.5405V15.2188C19.4995 14.8314 19.485 14.5838 19.4583 14.4743C19.4316 14.3647 19.3721 14.2854 19.2756 14.2342H19.2759Z" fill="black"/>
<path d="M26.2237 14.8375H26.3759C27.2302 14.8375 27.923 15.5066 27.923 16.3309V19.7659C27.923 20.5908 27.2305 21.2594 26.3759 21.2594H26.2237C25.7009 21.2594 25.2387 21.0088 24.9586 20.6256L24.8215 21.1492H22.6873V12.6924H24.9644V15.4438C25.2587 15.0772 25.712 14.8375 26.2237 14.8375ZM25.7362 19.0153V16.9853C25.7362 16.6499 25.7148 16.4297 25.6697 16.3284C25.625 16.2272 25.4459 16.1621 25.3202 16.1621C25.1944 16.1621 25.0009 16.215 24.9631 16.304V19.7403C25.0062 19.8382 25.1908 19.8927 25.3202 19.8927C25.4495 19.8927 25.6375 19.8402 25.677 19.7403C25.7165 19.6408 25.7362 19.398 25.7362 19.0153Z" fill="black"/>
<rect x="49.5" width="33" height="33" rx="4" fill="#4A99E9"/>
<path d="M75.0124 10.8445L72.3235 11.6286C71.8847 11.0591 70.7924 9.92018 69.1166 10.1956C68.5958 10.2591 68.0943 10.4316 67.6447 10.7018C67.1951 10.9721 66.8075 11.334 66.5071 11.764C65.9762 12.6223 65.7754 13.6443 65.9422 14.6396C64.8592 14.4062 61.9697 12.1749 60.1725 10.1537C60.1725 10.1537 59.5703 12.2029 60.6393 13.5287C60.3101 13.3501 59.9976 13.1423 59.7057 12.9078C59.708 12.9311 59.708 12.9545 59.7057 12.9778C59.7057 13.3979 59.7057 15.8534 60.9521 16.8524C60.6827 16.7901 60.4176 16.7105 60.1585 16.6142C60.6542 17.9596 61.5299 19.132 62.6793 19.9892C61.825 20.5541 61.4422 20.7361 59.1128 21.1749C59.4092 21.3336 59.7224 21.4588 60.0465 21.5483C59.513 21.7456 58.9527 21.8605 58.3846 21.8891L58.8841 22.0947C60.7986 22.8305 62.8272 23.2255 64.878 23.2617C68.4817 23.2617 72.8977 21.7632 73.5279 14.6164L75.3298 12.343L72.949 12.9497L75.0124 10.8445Z" fill="white"/>
</svg>
